<svg id="arrow-forward" xmlns="http://www.w3.org/2000/svg" width="24" height="24" viewBox="0 0 24 24">
  <rect id="Rectangle_2995" data-name="Rectangle 2995" width="24" height="24" transform="translate(0 24) rotate(-90)" fill="#14ddcb" opacity="0"/>
  <path id="Path_1471" data-name="Path 1471" d="M5,13H16.86l-3.63,4.36a1,1,0,0,0,1.54,1.28l5-6a1.19,1.19,0,0,0,.09-.15c0-.05.05-.08.07-.13a.961.961,0,0,0,0-.72c0-.05-.05-.08-.07-.13a1.19,1.19,0,0,0-.09-.15l-5-6a1,1,0,1,0-1.54,1.28L16.86,11H5a1,1,0,0,0,0,2Z" fill="#14ddcb"/>
</svg>
