<svg id="Layer_2" data-name="Layer 2" xmlns="http://www.w3.org/2000/svg" width="24" height="24" viewBox="0 0 24 24">
  <g id="calendar">
    <rect id="Rectangle_2994" data-name="Rectangle 2994" width="24" height="24" fill="#94a3ba" opacity="0"/>
    <path id="Path_1470" data-name="Path 1470" d="M18,4H17V3a1,1,0,1,0-2,0V4H9V3A1,1,0,1,0,7,3V4H6A3,3,0,0,0,3,7V19a3,3,0,0,0,3,3H18a3,3,0,0,0,3-3V7a3,3,0,0,0-3-3ZM8,17a1,1,0,1,1,1-1A1,1,0,0,1,8,17Zm8,0H12a1,1,0,0,1,0-2h4a1,1,0,0,1,0,2Zm3-6H5V7A1,1,0,0,1,6,6H7V7A1,1,0,0,0,9,7V6h6V7a1,1,0,0,0,2,0V6h1a1,1,0,0,1,1,1Z" fill="#14ddcb"/>
  </g>
</svg>
