<svg xmlns="http://www.w3.org/2000/svg" xmlns:xlink="http://www.w3.org/1999/xlink" width="30.661" height="26.368" viewBox="0 0 30.661 26.368">
  <defs>
    <clipPath id="clip-path">
      <rect id="Rectangle_7185" data-name="Rectangle 7185" width="30.661" height="26.368" fill="#88c53c"/>
    </clipPath>
  </defs>
  <g id="Group_24204" data-name="Group 24204" transform="translate(-42.099 -359.022)">
    <g id="Group_24202" data-name="Group 24202" transform="translate(42.099 359.022)">
      <g id="Group_24201" data-name="Group 24201" transform="translate(0 0)" clip-path="url(#clip-path)">
        <path id="Path_83351" data-name="Path 83351" d="M1,0A1.056,1.056,0,1,0,1.109,2.11H4.492L8.521,19.228h0a1.055,1.055,0,0,0,1.026.812H28.531a1.055,1.055,0,1,0,0-2.109H10.383L6.354.817h0A1.056,1.056,0,0,0,5.328,0H1.11C1.074,0,1.038,0,1,0Zm9.916,5.273c-.644,0-1.291.531-1.162,1.162l1.689,8.224c.129.631.518,1.162,1.162,1.162H27.579c.644,0,1.017-.534,1.162-1.162l1.9-8.224c.145-.627-.518-1.162-1.162-1.162Zm2.83,2.08h0A1.055,1.055,0,0,1,14.82,8.426v4.219a1.055,1.055,0,1,1-2.109,0V8.426a1.055,1.055,0,0,1,1.038-1.071Zm4.219,0h0a1.055,1.055,0,0,1,1.071,1.071v4.219a1.055,1.055,0,1,1-2.109,0V8.426a1.055,1.055,0,0,1,1.038-1.071Zm4.219,0h0a1.055,1.055,0,0,1,1.071,1.071v4.219a1.055,1.055,0,1,1-2.109,0V8.426a1.055,1.055,0,0,1,1.038-1.071Zm4.219,0h0a1.055,1.055,0,0,1,1.071,1.071v4.219a1.055,1.055,0,1,1-2.109,0V8.426a1.055,1.055,0,0,1,1.038-1.071ZM13.765,22.149a2.11,2.11,0,1,0,1.492.618,2.11,2.11,0,0,0-1.492-.618m10.547,0a2.11,2.11,0,1,0,1.492.618,2.11,2.11,0,0,0-1.492-.618" transform="translate(0 0)" fill="#88c53c"/>
      </g>
    </g>
  </g>
</svg>
