<svg xmlns="http://www.w3.org/2000/svg" width="29.48" height="25.353" viewBox="0 0 29.48 25.353">
  <path id="Path_83395" data-name="Path 83395" d="M98.651,81.23a.692.692,0,0,1,0-1.382H112.96a6.139,6.139,0,0,1,1.635-3.565,5.5,5.5,0,0,1,8.071,0,6.141,6.141,0,0,1,1.635,3.565h2.52a.692.692,0,0,1,0,1.382H124.3a6.138,6.138,0,0,1-1.635,3.565,5.5,5.5,0,0,1-8.071,0,6.139,6.139,0,0,1-1.635-3.565Zm8.19,7.985a4.273,4.273,0,0,0-3.109,1.358,4.82,4.82,0,0,0,0,6.559,4.238,4.238,0,0,0,6.218,0,4.82,4.82,0,0,0,0-6.559A4.273,4.273,0,0,0,106.842,89.215Zm-4.035.381a5.5,5.5,0,0,1,8.071,0,6.139,6.139,0,0,1,1.635,3.565H126.82a.692.692,0,0,1,0,1.382H112.512a6.139,6.139,0,0,1-1.635,3.565,5.5,5.5,0,0,1-8.071,0,6.141,6.141,0,0,1-1.635-3.565h-2.52a.692.692,0,0,1,0-1.382h2.52A6.138,6.138,0,0,1,102.806,89.6Zm18.933-12.336a4.238,4.238,0,0,0-6.218,0,4.82,4.82,0,0,0,0,6.559,4.238,4.238,0,0,0,6.218,0,4.82,4.82,0,0,0,0-6.559Z" transform="translate(-97.996 -74.519)" fill="#88c53c"/>
</svg>
