<svg xmlns="http://www.w3.org/2000/svg" width="17.75" height="17.75" viewBox="0 0 17.75 17.75">
  <g id="Group_24260" data-name="Group 24260" transform="translate(4211.71 -10955.25)">
    <path id="Path_83433" data-name="Path 83433" d="M367.625,70a8.875,8.875,0,1,0,8.875,8.875A8.885,8.885,0,0,0,367.625,70Zm0,16.384a7.509,7.509,0,1,1,7.51-7.509A7.518,7.518,0,0,1,367.625,86.384Z" transform="translate(-4570.46 10885.25)" fill="#88c53c"/>
    <path id="Path_83434" data-name="Path 83434" d="M440.231,107.731A1.367,1.367,0,0,1,441.6,109.1h1.365a2.728,2.728,0,0,0-2.048-2.634V105h-1.365v1.365H437.5V109.1a2.734,2.734,0,0,0,2.731,2.731,1.367,1.367,0,0,1,1.365,1.365v1.365h-1.365a1.367,1.367,0,0,1-1.365-1.365H437.5a2.728,2.728,0,0,0,2.048,2.634v1.462h1.365v-1.365h2.048v-2.731a2.734,2.734,0,0,0-2.731-2.731,1.367,1.367,0,0,1-1.365-1.365v-1.365Z" transform="translate(-4643.066 10852.981)" fill="#88c53c"/>
    <path id="Path_83435" data-name="Path 83435" d="M516.25,175h1.365v1.365H516.25Z" transform="translate(-4715.672 10788.441)" fill="#88c53c"/>
    <path id="Path_83436" data-name="Path 83436" d="M411.25,175h1.365v1.365H411.25Z" transform="translate(-4618.865 10788.441)" fill="#88c53c"/>
  </g>
</svg>
