<svg xmlns="http://www.w3.org/2000/svg" xmlns:xlink="http://www.w3.org/1999/xlink" width="23.862" height="22.085" viewBox="0 0 23.862 22.085">
  <defs>
    <clipPath id="clip-path">
      <rect id="Rectangle_7190" data-name="Rectangle 7190" width="23.862" height="22.085" fill="#88c53c"/>
    </clipPath>
  </defs>
  <g id="Group_24213" data-name="Group 24213" clip-path="url(#clip-path)">
    <path id="Path_83397" data-name="Path 83397" d="M6.336,0a6.109,6.109,0,0,0-4.5,2,7.1,7.1,0,0,0,0,9.534L11.29,21.8a.873.873,0,0,0,1.282,0q4.729-5.128,9.453-10.261a7.1,7.1,0,0,0,0-9.534,6.063,6.063,0,0,0-8.989,0L11.935,3.2,10.826,2a6.089,6.089,0,0,0-4.49-2Zm0,1.7A4.358,4.358,0,0,1,9.544,3.181l1.754,1.9h0a.872.872,0,0,0,1.281,0l1.745-1.89a4.22,4.22,0,0,1,6.417,0,5.4,5.4,0,0,1,0,7.171q-4.406,4.778-8.807,9.562L3.128,10.352a5.4,5.4,0,0,1,0-7.171A4.358,4.358,0,0,1,6.336,1.7Z" transform="translate(0)" fill="#88c53c"/>
  </g>
</svg>
