<svg xmlns="http://www.w3.org/2000/svg" width="20.449" height="14" viewBox="0 0 20.449 14">
  <path id="Icon_awesome-leaf" data-name="Icon awesome-leaf" d="M19.395.264a.631.631,0,0,0-1-.033,6.573,6.573,0,0,1-5.322,2.392h-2.84c-3.764,0-6.817,2.351-6.817,5.249a4.187,4.187,0,0,0,.053.56,20.7,20.7,0,0,1,10.172-2.31.517.517,0,0,1,.568.437A.517.517,0,0,1,13.636,7C4.71,7,.925,11.211.087,12.794c-.234.446.043.954.621,1.137a1.279,1.279,0,0,0,1.484-.473,7.706,7.706,0,0,1,2.553-2.477,7.732,7.732,0,0,0,6.21,2.111c5.574-.312,9.5-4.161,9.5-8.875A8.031,8.031,0,0,0,19.395.264Z" transform="translate(-0.004 0.002)" fill="#094c62"/>
</svg>
